# File created by Blade
# Date/Time:  Fri Jan 16 19:40:56 2015
#---------------------------------------------------------
:version 1.10
:name HOM
:units
  mass 1.0
  length 1.000000
  angle deg
:documentation
     Acclaim Skeleton File
:root
   axis xyz
   order TX TY TZ RX RY RZ
   position 0.000000 0.000000 0.000000
   orientation 0 0 0
:bonedata
   begin
      id 1
      name Spine_dum
      direction 0.000000 1.000000 0.000000
      length 7.067664
      axis 0.0 0.0 0.0 xyz
   end
   begin
      id 2
      name LeftUpLeg_dum
      direction 1.000000 0.000000 0.000000
      length 4.013002
      axis 0.0 0.0 0.0 xyz
   end
   begin
      id 3
      name RightUpLeg_dum
      direction -1.000000 0.000000 0.000000
      length 4.013002
      axis 0.0 0.0 0.0 xyz
   end
   begin
      id 4
      name Spine
      direction 0.000000 1.000000 0.000000
      length 0.000000
      axis 0.0 0.0 0.0 xyz
      dof rx ry rz
   end
   begin
      id 5
      name Spine_dum1
      direction 0.000000 1.000000 0.000000
      length 15.039886
      axis 0.0 0.0 0.0 xyz
   end
   begin
      id 6
      name Spine_dum2
      direction 0.000000 1.000000 0.000000
      length 10.530368
      axis 0.0 0.0 0.0 xyz
   end
   begin
      id 7
      name Spine_dum3
      direction 0.000000 1.000000 0.000000
      length 10.530368
      axis 0.0 0.0 0.0 xyz
   end
   begin
      id 8
      name Head
      direction 0.000000 1.000000 0.000000
      length 4.527550
      axis 0.0 0.0 0.0 xyz
      dof rx ry rz
   end
   begin
      id 9
      name LeftShoulder
      direction 1.000000 0.000000 0.000000
      length 7.028855
      axis 0.0 0.0 -90.0 xyz
      dof rx ry rz
   end
   begin
      id 10
      name LeftArm
      direction 1.000000 0.000000 0.000000
      length 10.797705
      axis 0.0 0.0 -90.0 xyz
      dof rx ry rz
   end
   begin
      id 11
      name LeftForeArm
      direction 1.000000 0.000000 0.000000
      length 7.907442
      axis 0.0 0.0 -90.0 xyz
      dof ry rz rx
   end
   begin
      id 12
      name LeftHand
      direction 0.000000 0.000000 0.000000
      length 0.000000
      axis 0.0 0.0 -90.0 xyz
      dof rx ry rz
   end
   begin
      id 13
      name LeftHand_dum1
      direction 0.000000 0.000000 0.000000
      length 0.000000
      axis 0.0 0.0 -90.0 xyz
   end
   begin
      id 14
      name LeftHand_dum2
      direction 1.000000 0.000000 0.000000
      length 3.937000
      axis 0.0 0.0 -90.0 xyz
   end
   begin
      id 15
      name LeftHandThumb1
      direction 0.000000 0.000000 1.000000
      length 3.937000
      axis 0.0 0.0 -90.0 xyz
      dof rx rz ry
   end
   begin
      id 16
      name RightShoulder
      direction -1.000000 0.000000 0.000000
      length 7.028855
      axis 0.0 0.0 90.0 xyz
      dof rx ry rz
   end
   begin
      id 17
      name RightArm
      direction -1.000000 0.000000 0.000000
      length 10.797705
      axis 0.0 0.0 90.0 xyz
      dof rx ry rz
   end
   begin
      id 18
      name RightForeArm
      direction -1.000000 0.000000 0.000000
      length 7.907442
      axis 0.0 0.0 90.0 xyz
      dof ry rz rx
   end
   begin
      id 19
      name RightHand
      direction 0.000000 0.000000 0.000000
      length 0.000000
      axis 0.0 0.0 90.0 xyz
      dof rx ry rz
   end
   begin
      id 20
      name RightHand_dum1
      direction 0.000000 0.000000 0.000000
      length 0.000000
      axis 0.0 0.0 90.0 xyz
   end
   begin
      id 21
      name RightHand_dum2
      direction -1.000000 0.000000 0.000000
      length 3.937000
      axis 0.0 0.0 90.0 xyz
   end
   begin
      id 22
      name RightHandThumb1
      direction 0.000000 0.000000 1.000000
      length 3.937000
      axis 0.0 0.0 90.0 xyz
      dof rx rz ry
   end
   begin
      id 23
      name LeftUpLeg
      direction 0.000000 -1.000000 0.000000
      length 16.899758
      axis 0.0 0.0 0.0 xyz
      dof rx ry rz
   end
   begin
      id 24
      name LeftLeg
      direction 0.000000 -1.000000 0.000000
      length 17.389183
      axis 0.0 0.0 0.0 xyz
      dof rx ry rz
   end
   begin
      id 25
      name LeftFoot
      direction 0.000000 -0.258819 0.965926
      length 4.924528
      axis 15.0 0.0 0.0 xyz
      dof rx ry rz
   end
   begin
      id 26
      name LeftToeBase
      direction 0.000000 0.000000 1.000000
      length 2.952750
      axis 0.0 0.0 0.0 xyz
      dof rx ry rz
   end
   begin
      id 27
      name RightUpLeg
      direction 0.000000 -1.000000 0.000000
      length 16.899758
      axis 0.0 0.0 0.0 xyz
      dof rx ry rz
   end
   begin
      id 28
      name RightLeg
      direction 0.000000 -1.000000 0.000000
      length 17.389183
      axis 0.0 0.0 0.0 xyz
      dof rx ry rz
   end
   begin
      id 29
      name RightFoot
      direction 0.000000 -0.258819 0.965926
      length 4.924528
      axis 15.0 0.0 0.0 xyz
      dof rx ry rz
   end
   begin
      id 30
      name RightToeBase
      direction 0.000000 0.000000 1.000000
      length 2.952750
      axis 0.0 0.0 0.0 xyz
      dof rx ry rz
   end
:hierarchy
   begin
      root Spine_dum LeftUpLeg_dum RightUpLeg_dum
      Spine_dum Spine
      LeftUpLeg_dum LeftUpLeg
      RightUpLeg_dum RightUpLeg
      Spine Spine_dum1 Spine_dum2 Spine_dum3
      Spine_dum1 Head
      Spine_dum2 LeftShoulder
      Spine_dum3 RightShoulder
      LeftShoulder LeftArm
      LeftArm LeftForeArm
      LeftForeArm LeftHand
      LeftHand LeftHand_dum1 LeftHand_dum2
      LeftHand_dum1 LeftHandThumb1
      RightShoulder RightArm
      RightArm RightForeArm
      RightForeArm RightHand
      RightHand RightHand_dum1 RightHand_dum2
      RightHand_dum1 RightHandThumb1
      LeftUpLeg LeftLeg
      LeftLeg LeftFoot
      LeftFoot LeftToeBase
      RightUpLeg RightLeg
      RightLeg RightFoot
      RightFoot RightToeBase
   end

# File created by Blade
# Date/Time:  Fri Jan 16 19:41:12 2015
# Frame Rate: 120.000 fps
#------------------------------------------------------
:FULLY-SPECIFIED
:DEGREES
1
root 18.411185 35.376828 -21.746731 8.404776 -0.132699 -1.607894
Spine -21.103948 -0.985389 0.207390
Head 7.609507 1.721050 2.061106
LeftShoulder -15.275854 -30.038854 19.145815
LeftArm 1.403229 1.126091 -8.343546
LeftForeArm 9.859070 0.000000 -2.229470
LeftHand -6.021112 -0.000000 -5.981733
LeftHandThumb1 -26.253704 0.000000 33.147579
RightShoulder -13.898081 -10.875172 -6.299255
RightArm 11.968827 33.232404 17.116459
RightForeArm -37.125794 0.000000 7.263110
RightHand -7.896229 -0.000000 6.839865
RightHandThumb1 -24.326973 -0.000000 -32.862282
LeftUpLeg 1.674450 8.834483 2.033624
LeftLeg -6.584661 -0.000000 0.000000
LeftFoot -21.939736 27.832062 -13.083783
LeftToeBase 25.231659 -0.000000 -0.000000
RightUpLeg 0.234620 -8.344712 -0.631876
RightLeg -3.108844 -0.000000 0.000000
RightFoot -22.325213 -21.328006 17.185833
RightToeBase 24.184733 -0.000000 -0.000000
2
root 18.409529 35.377090 -21.748234 8.403403 -0.119127 -1.609316
Spine -21.094917 -0.989451 0.202573
Head 7.605307 1.717839 2.049227
LeftShoulder -15.272144 -30.052419 19.156935
LeftArm 1.446338 1.155373 -8.306880
LeftForeArm 9.914327 0.000000 -2.260229
LeftHand -5.986764 -0.000000 -6.032522
LeftHandThumb1 -26.253704 0.000000 33.147579
RightShoulder -13.891106 -10.868994 -6.318290
RightArm 11.967717 33.303929 17.105073
RightForeArm -37.125636 -0.000000 7.245023
RightHand -7.836123 0.000000 6.798542
RightHandThumb1 -24.326973 -0.000000 -32.862282
LeftUpLeg 1.671006 8.842725 2.038655
LeftLeg -6.584423 -0.000000 0.000000
LeftFoot -21.921264 27.811652 -13.067210
LeftToeBase 25.232939 -0.000000 -0.000000
RightUpLeg 0.229356 -8.312143 -0.624408
RightLeg -3.098916 -0.000000 0.000000
RightFoot -22.343665 -21.380499 17.210370
RightToeBase 24.149183 -0.000000 -0.000000
3
root 18.406994 35.377779 -21.748063 8.406416 -0.080717 -1.611915
Spine -21.104545 -1.016929 0.196580
Head 7.621004 1.715098 2.057271
LeftShoulder -15.245695 -30.055144 19.169526
LeftArm 1.458593 1.139111 -8.276566
LeftForeArm 9.922762 -0.000000 -2.266435
LeftHand -6.092178 -0.000000 -5.940034
LeftHandThumb1 -26.253704 0.000000 33.147579
RightShoulder -13.914141 -10.919993 -6.290193
RightArm 12.019482 33.338346 17.054995
RightForeArm -37.052097 -0.000000 7.189658
RightHand -7.857711 -0.000000 6.781244
RightHandThumb1 -24.326973 -0.000000 -32.862282
LeftUpLeg 1.664094 8.815425 2.048847
LeftLeg -6.587955 -0.000000 0.000000
LeftFoot -21.923340 27.799879 -13.089045
LeftToeBase 25.255940 -0.000000 -0.000000
RightUpLeg 0.235869 -8.320406 -0.610767
RightLeg -3.110216 -0.000000 0.000000
RightFoot -22.341053 -21.416624 17.211612
RightToeBase 24.173762 -0.000000 -0.000000
4
root 18.405747 35.377980 -21.749948 8.412676 -0.049942 -1.604575
Spine -21.106198 -1.038360 0.177910
Head 7.618814 1.706679 2.063267
LeftShoulder -15.224974 -30.072946 19.190908
LeftArm 1.466857 1.130299 -8.251651
LeftForeArm 9.895584 -0.000000 -2.265764
LeftHand -6.106185 -0.000000 -5.888401
LeftHandThumb1 -26.253704 0.000000 33.147579
RightShoulder -13.916886 -10.908080 -6.297855
RightArm 12.014050 33.324999 17.015849
RightForeArm -37.015143 -0.000000 7.156237
RightHand -7.864459 -0.000000 6.810057
RightHandThumb1 -24.326973 -0.000000 -32.862282
LeftUpLeg 1.645761 8.797718 2.045743
LeftLeg -6.581520 -0.000000 0.000000
LeftFoot -21.913171 27.794467 -13.090120
LeftToeBase 25.222531 -0.000000 -0.000000
RightUpLeg 0.223161 -8.329383 -0.611306
RightLeg -3.093292 -0.000000 0.000000
RightFoot -22.354542 -21.434498 17.188826
RightToeBase 24.178887 -0.000000 -0.000000
5
root 18.404361 35.378375 -21.751304 8.412985 -0.026277 -1.602424
Spine -21.103429 -1.053963 0.168425
Head 7.628692 1.702339 2.061344
LeftShoulder -15.213352 -30.082240 19.212848
LeftArm 1.476418 1.116629 -8.238488
LeftForeArm 9.866813 -0.000000 -2.248125
LeftHand -5.997141 -0.000000 -5.858179
LeftHandThumb1 -26.253704 0.000000 33.147579
RightShoulder -13.898378 -10.863848 -6.338302
RightArm 11.981782 33.341461 17.007228
RightForeArm -37.058540 -0.000000 7.154566
RightHand -7.877753 -0.000000 6.841431
RightHandThumb1 -24.326973 -0.000000 -32.862282
LeftUpLeg 1.640282 8.785146 2.047593
LeftLeg -6.584096 -0.000000 0.000000
LeftFoot -21.916208 27.781425 -13.103260
LeftToeBase 25.241566 -0.000000 -0.000000
RightUpLeg 0.224618 -8.329498 -0.607122
RightLeg -3.096105 -0.000000 0.000000
RightFoot -22.361708 -21.465001 17.193128
RightToeBase 24.193950 -0.000000 -0.000000
6
root 18.401597 35.378500 -21.751858 8.408040 0.003184 -1.605375
Spine -21.093157 -1.076789 0.166372
Head 7.619641 1.715176 2.054952
LeftShoulder -15.206693 -30.091670 19.219841
LeftArm 1.510466 1.088670 -8.194169
LeftForeArm 9.990877 -0.000000 -2.242923
LeftHand -6.007024 -0.000000 -5.925263
LeftHandThumb1 -26.253704 0.000000 33.147579
RightShoulder -13.866504 -10.798810 -6.393572
RightArm 11.901463 33.300670 16.982619
RightForeArm -37.024800 -0.000000 7.208649
RightHand -7.902543 0.000000 6.890682
RightHandThumb1 -24.326973 -0.000000 -32.862282
LeftUpLeg 1.642795 8.775063 2.059156
LeftLeg -6.591143 -0.000000 0.000000
LeftFoot -21.904215 27.766589 -13.099288
LeftToeBase 25.229579 -0.000000 -0.000000
RightUpLeg 0.233812 -8.322548 -0.595853
RightLeg -3.100842 -0.000000 0.000000
RightFoot -22.366943 -21.504370 17.203120
RightToeBase 24.150813 -0.000000 -0.000000
7
root 18.399532 35.378816 -21.753434 8.416753 0.032233 -1.603909
Spine -21.103552 -1.103283 0.150203
Head 7.627985 1.703602 2.073352
LeftShoulder -15.186921 -30.093304 19.253547
LeftArm 1.515025 0.987121 -8.185819
LeftForeArm 9.990250 0.000000 -2.249419
LeftHand -5.975342 0.000000 -5.854424
LeftHandThumb1 -26.253704 0.000000 33.147579
RightShoulder -13.837524 -10.754700 -6.416360
RightArm 11.835386 33.284201 16.934404
RightForeArm -37.053462 0.000000 7.219459
RightHand -7.781916 -0.000000 6.861702
RightHandThumb1 -24.326973 -0.000000 -32.862282
LeftUpLeg 1.624415 8.765481 2.061495
LeftLeg -6.588484 -0.000000 0.000000
LeftFoot -21.895661 27.754486 -13.092586
LeftToeBase 25.244131 -0.000000 -0.000000
RightUpLeg 0.221716 -8.342144 -0.590305
RightLeg -3.089055 -0.000000 0.000000
RightFoot -22.373110 -21.492733 17.218417
RightToeBase 24.169313 -0.000000 -0.000000
8
root 18.397648 35.379111 -21.754326 8.417497 0.066859 -1.604619
Spine -21.102423 -1.133500 0.148189
Head 7.629284 1.710121 2.065297
LeftShoulder -15.201470 -30.065414 19.256234
LeftArm 1.582782 1.003545 -8.153266
LeftForeArm 9.980476 -0.000000 -2.239547
LeftHand -6.180895 -0.000000 -5.828073
LeftHandThumb1 -26.253704 0.000000 33.147579
RightShoulder -13.845983 -10.749642 -6.433370
RightArm 11.866338 33.288411 16.923933
RightForeArm -37.043909 -0.000000 7.185266
RightHand -7.857900 -0.000000 6.839841
RightHandThumb1 -24.326973 -0.000000 -32.862282
LeftUpLeg 1.615707 8.746259 2.068961
LeftLeg -6.587505 -0.000000 0.000000
LeftFoot -21.884019 27.743588 -13.092305
LeftToeBase 25.223244 -0.000000 -0.000000
RightUpLeg 0.225623 -8.348781 -0.581822
RightLeg -3.094693 -0.000000 0.000000
RightFoot -22.375850 -21.522943 17.215806
RightToeBase 24.155924 -0.000000 -0.000000
9
root 18.395527 35.379683 -21.755604 8.420291 0.096194 -1.603105
Spine -21.107065 -1.165979 0.136852
Head 7.644037 1.714636 2.075798
LeftShoulder -15.203733 -30.033448 19.313936
LeftArm 1.611464 0.956124 -8.185600
LeftForeArm 9.914419 -0.000000 -2.270856
LeftHand -6.020875 -0.000000 -5.810466
LeftHandThumb1 -26.253704 0.000000 33.147579
RightShoulder -13.863387 -10.774716 -6.411663
RightArm 11.931435 33.330998 16.896204
RightForeArm -37.057183 -0.000000 7.137971
RightHand -7.834026 -0.000000 6.855538
RightHandThumb1 -24.326973 -0.000000 -32.862282
LeftUpLeg 1.607783 8.729072 2.072572
LeftLeg -6.591790 -0.000000 0.000000
LeftFoot -21.871417 27.745913 -13.083523
LeftToeBase 25.216170 -0.000000 -0.000000
RightUpLeg 0.225219 -8.368594 -0.575566
RightLeg -3.092801 -0.000000 0.000000
RightFoot -22.375698 -21.516194 17.236969
RightToeBase 24.110004 -0.000000 -0.000000
10
root 18.394112 35.380269 -21.757467 8.424748 0.118177 -1.599351
Spine -21.114744 -1.181188 0.124432
Head 7.659182 1.708730 2.069853
LeftShoulder -15.159066 -30.060890 19.321222
LeftArm 1.602085 0.974639 -8.150521
LeftForeArm 9.847845 0.000000 -2.284945
LeftHand -5.906089 0.000000 -5.897469
LeftHandThumb1 -26.253704 0.000000 33.147579
RightShoulder -13.847781 -10.798342 -6.411737
RightArm 11.917337 33.385587 16.860499
RightForeArm -37.077485 -0.000000 7.141820
RightHand -7.917236 0.000000 6.928435
RightHandThumb1 -24.326973 -0.000000 -32.862282
LeftUpLeg 1.594718 8.723577 2.071918
LeftLeg -6.587985 -0.000000 0.000000
LeftFoot -21.868298 27.722947 -13.100134
LeftToeBase 25.234042 -0.000000 -0.000000
RightUpLeg 0.228866 -8.355501 -0.575673
RightLeg -3.107248 -0.000000 0.000000
RightFoot -22.378899 -21.534013 17.252853
RightToeBase 24.116113 -0.000000 -0.000000
11
root 18.392153 35.380617 -21.757951 8.427446 0.145711 -1.598626
Spine -21.115827 -1.218009 0.120022
Head 7.654029 1.720617 2.070399
LeftShoulder -15.162673 -30.059225 19.362775
LeftArm 1.622764 0.927528 -8.146509
LeftForeArm 9.858985 -0.000000 -2.308172
LeftHand -5.888834 -0.000000 -5.834283
LeftHandThumb1 -26.253704 0.000000 33.147579
RightShoulder -13.819969 -10.771260 -6.441616
RightArm 11.878506 33.375541 16.831288
RightForeArm -37.064579 -0.000000 7.159588
RightHand -7.760160 -0.000000 6.879020
RightHandThumb1 -24.326973 -0.000000 -32.862282
LeftUpLeg 1.585547 8.724538 2.075299
LeftLeg -6.587666 -0.000000 0.000000
LeftFoot -21.857880 27.707029 -13.098138
LeftToeBase 25.218979 -0.000000 -0.000000
RightUpLeg 0.229255 -8.369983 -0.569725
RightLeg -3.107344 -0.000000 0.000000
RightFoot -22.392369 -21.544421 17.268348
RightToeBase 24.146446 -0.000000 -0.000000
